<?xml version="1.0" encoding="UTF-8"?>
<svg width="198px" height="38px" viewBox="0 0 198 38" version="1.1" xmlns="http://www.w3.org/2000/svg" xmlns:xlink="http://www.w3.org/1999/xlink" xmlns:sketch="http://www.bohemiancoding.com/sketch/ns">
    <!-- Generator: Sketch 3.0.1 (7597) - http://www.bohemiancoding.com/sketch -->
    <title>Group + Group 2 + Star 25</title>
    <description>Created with Sketch.</description>
    <defs>
        <linearGradient x1="0.25781251%" y1="49.7500002%" x2="69.909668%" y2="49.7500002%" id="linearGradient-1">
            <stop stop-color="#F6A623" offset="0%"></stop>
            <stop stop-color="#F6A623" offset="72.1387661%"></stop>
            <stop stop-color="#FFFFFF" offset="72.7020886%"></stop>
            <stop stop-color="#FFFFFF" offset="100%"></stop>
        </linearGradient>
    </defs>
    <g id="Page-1" stroke="none" stroke-width="1" fill="none" fill-rule="evenodd" sketch:type="MSPage">
        <g id="Group-+-Group-2-+-Star-25" sketch:type="MSLayerGroup" transform="translate(1.000000, 0.000000)" stroke="#F6A623">
            <g id="Group" sketch:type="MSShapeGroup">
                <polygon id="Star-20" fill="#F6A623" points="80 12.75 75.297718 15.3766445 76.1957739 9.81332223 72.3915479 5.87335555 77.648859 5.06167777 80 0 82.351141 5.06167777 87.6084521 5.87335555 83.8042261 9.81332223 84.702282 15.3766445 "></polygon>
                <polygon id="Star-32" fill="#F6A623" points="62 12.75 57.297718 15.3766445 58.1957739 9.81332223 54.3915479 5.87335555 59.648859 5.06167777 62 0 64.351141 5.06167777 69.6084521 5.87335555 65.8042261 9.81332223 66.702282 15.3766445 "></polygon>
                <polygon id="Star-34" fill="#F6A623" points="44 12.75 39.297718 15.3766445 40.1957739 9.81332223 36.3915479 5.87335555 41.648859 5.06167777 44 0 46.351141 5.06167777 51.6084521 5.87335555 47.8042261 9.81332223 48.702282 15.3766445 "></polygon>
                <polygon id="Star-35" fill="#F6A623" points="26 12.75 21.297718 15.3766445 22.1957739 9.81332223 18.3915479 5.87335555 23.648859 5.06167777 26 0 28.351141 5.06167777 33.6084521 5.87335555 29.8042261 9.81332223 30.702282 15.3766445 "></polygon>
                <polygon id="Star-36" fill="#F6A623" points="8 12.75 3.29771798 15.3766445 4.19577393 9.81332223 0.39154787 5.87335555 5.64885899 5.06167777 8 0 10.351141 5.06167777 15.6084521 5.87335555 11.8042261 9.81332223 12.702282 15.3766445 "></polygon>
                <polygon id="Star-21" fill="url(#linearGradient-1)" points="98 12.75 93.297718 15.3766445 94.1957739 9.81332223 90.3915479 5.87335555 95.648859 5.06167777 98 0 100.351141 5.06167777 105.608452 5.87335555 101.804226 9.81332223 102.702282 15.3766445 "></polygon>
                <polygon id="Star-22" fill="#FFFFFF" points="116 12.75 111.297718 15.3766445 112.195774 9.81332223 108.391548 5.87335555 113.648859 5.06167777 116 0 118.351141 5.06167777 123.608452 5.87335555 119.804226 9.81332223 120.702282 15.3766445 "></polygon>
                <polygon id="Star-23" fill="#FFFFFF" points="134 12.75 129.297718 15.3766445 130.195774 9.81332223 126.391548 5.87335555 131.648859 5.06167777 134 0 136.351141 5.06167777 141.608452 5.87335555 137.804226 9.81332223 138.702282 15.3766445 "></polygon>
                <polygon id="Star-24" fill="#FFFFFF" points="152 12.75 147.297718 15.3766445 148.195774 9.81332223 144.391548 5.87335555 149.648859 5.06167777 152 0 154.351141 5.06167777 159.608452 5.87335555 155.804226 9.81332223 156.702282 15.3766445 "></polygon>
                <polygon id="Star-33" fill="#FFFFFF" points="170 12.75 165.297718 15.3766445 166.195774 9.81332223 162.391548 5.87335555 167.648859 5.06167777 170 0 172.351141 5.06167777 177.608452 5.87335555 173.804226 9.81332223 174.702282 15.3766445 "></polygon>
                <polygon id="Star-31" fill="#FFFFFF" points="188 12.75 183.297718 15.3766445 184.195774 9.81332223 180.391548 5.87335555 185.648859 5.06167777 188 0 190.351141 5.06167777 195.608452 5.87335555 191.804226 9.81332223 192.702282 15.3766445 "></polygon>
            </g>
            <g id="Group-2" transform="translate(0.000000, 22.000000)" sketch:type="MSShapeGroup">
                <polygon id="Star-20" fill="#F6A623" points="80 12.75 75.297718 15.3766445 76.1957739 9.81332223 72.3915479 5.87335555 77.648859 5.06167777 80 0 82.351141 5.06167777 87.6084521 5.87335555 83.8042261 9.81332223 84.702282 15.3766445 "></polygon>
                <polygon id="Star-32" fill="#F6A623" points="62 12.75 57.297718 15.3766445 58.1957739 9.81332223 54.3915479 5.87335555 59.648859 5.06167777 62 0 64.351141 5.06167777 69.6084521 5.87335555 65.8042261 9.81332223 66.702282 15.3766445 "></polygon>
                <polygon id="Star-34" fill="#F6A623" points="44 12.75 39.297718 15.3766445 40.1957739 9.81332223 36.3915479 5.87335555 41.648859 5.06167777 44 0 46.351141 5.06167777 51.6084521 5.87335555 47.8042261 9.81332223 48.702282 15.3766445 "></polygon>
                <polygon id="Star-35" fill="#F6A623" points="26 12.75 21.297718 15.3766445 22.1957739 9.81332223 18.3915479 5.87335555 23.648859 5.06167777 26 0 28.351141 5.06167777 33.6084521 5.87335555 29.8042261 9.81332223 30.702282 15.3766445 "></polygon>
                <polygon id="Star-36" fill="#F6A623" points="8 12.75 3.29771798 15.3766445 4.19577393 9.81332223 0.39154787 5.87335555 5.64885899 5.06167777 8 0 10.351141 5.06167777 15.6084521 5.87335555 11.8042261 9.81332223 12.702282 15.3766445 "></polygon>
                <polygon id="Star-21" fill="url(#linearGradient-1)" points="98 12.75 93.297718 15.3766445 94.1957739 9.81332223 90.3915479 5.87335555 95.648859 5.06167777 98 0 100.351141 5.06167777 105.608452 5.87335555 101.804226 9.81332223 102.702282 15.3766445 "></polygon>
                <polygon id="Star-22" fill="#FFFFFF" points="116 12.75 111.297718 15.3766445 112.195774 9.81332223 108.391548 5.87335555 113.648859 5.06167777 116 0 118.351141 5.06167777 123.608452 5.87335555 119.804226 9.81332223 120.702282 15.3766445 "></polygon>
                <polygon id="Star-23" fill="#FFFFFF" points="134 12.75 129.297718 15.3766445 130.195774 9.81332223 126.391548 5.87335555 131.648859 5.06167777 134 0 136.351141 5.06167777 141.608452 5.87335555 137.804226 9.81332223 138.702282 15.3766445 "></polygon>
                <polygon id="Star-24" fill="#FFFFFF" points="152 12.75 147.297718 15.3766445 148.195774 9.81332223 144.391548 5.87335555 149.648859 5.06167777 152 0 154.351141 5.06167777 159.608452 5.87335555 155.804226 9.81332223 156.702282 15.3766445 "></polygon>
                <polygon id="Star-33" fill="#FFFFFF" points="170 12.75 165.297718 15.3766445 166.195774 9.81332223 162.391548 5.87335555 167.648859 5.06167777 170 0 172.351141 5.06167777 177.608452 5.87335555 173.804226 9.81332223 174.702282 15.3766445 "></polygon>
                <polygon id="Star-31" fill="#FFFFFF" points="188 12.75 183.297718 15.3766445 184.195774 9.81332223 180.391548 5.87335555 185.648859 5.06167777 188 0 190.351141 5.06167777 195.608452 5.87335555 191.804226 9.81332223 192.702282 15.3766445 "></polygon>
            </g>
            <polygon id="Star-25" fill="#F6A623" sketch:type="MSShapeGroup" points="98 34.75 93.297718 37.3766445 94.1957739 31.8133222 90.3915479 27.8733555 95.648859 27.0616778 98 22 100.351141 27.0616778 105.608452 27.8733555 101.804226 31.8133222 102.702282 37.3766445 "></polygon>
        </g>
    </g>
</svg>